<svg width="73" height="72" viewBox="0 0 73 72" fill="none" xmlns="http://www.w3.org/2000/svg">
<path d="M36.5 45C44.4968 45 51 38.721 51 31C51 23.279 44.4968 17 36.5 17C28.5032 17 22 23.279 22 31C22 38.721 28.5032 45 36.5 45ZM36.5 24C40.4984 24 43.75 27.1395 43.75 31C43.75 34.8605 40.4984 38 36.5 38C32.5016 38 29.25 34.8605 29.25 31C29.25 27.1395 32.5016 24 36.5 24Z" fill="white"/>
<path d="M34.4338 70.3403C35.0367 70.7693 35.7591 71 36.5 71C37.2409 71 37.9633 70.7693 38.5662 70.3403C39.6492 69.577 65.103 51.2624 64.9997 28.4002C64.9997 12.7411 52.214 0 36.5 0C20.786 0 8.00031 12.7411 8.00031 28.3825C7.897 51.2624 33.3508 69.577 34.4338 70.3403ZM36.5 7.10006C48.2882 7.10006 57.8748 16.6532 57.8748 28.418C57.9496 44.173 42.2427 58.3199 36.5 62.9598C30.7609 58.3163 15.0504 44.1659 15.1252 28.4002C15.1252 16.6532 24.7118 7.10006 36.5 7.10006Z" fill="white"/>
</svg>
